<svg width="60" height="60" fill="none" xmlns="http://www.w3.org/2000/svg"><mask id="a" style="mask-type:alpha" maskUnits="userSpaceOnUse" x="0" y="0" width="60" height="60"><path d="M30 60c16.569 0 30-13.431 30-30C60 13.431 46.569 0 30 0 13.431 0 0 13.431 0 30c0 16.569 13.431 30 30 30z" fill="#fff"/></mask><g mask="url(#a)"><path d="M4.763 0v36.818H18.19L30 16.364h30V0H4.763z" fill="#DB4437"/><path d="M4.763 0v36.818H18.19L30 16.364h30V0H4.763z" fill="url(#paint0_linear_78_137)"/><path d="M18.515 36.699L4.936 13.41l-.197.341 13.48 23.114.296-.167z" fill="#3E2723" fill-opacity=".15"/><path d="M0 60h28.558l13.255-13.255v-9.927H18.19L0 5.618V60z" fill="#0F9D58"/><path d="M0 60h28.558l13.255-13.255v-9.927H18.19L0 5.618V60z" fill="url(#paint1_linear_78_137)"/><path d="M41.536 37.272l-.283-.164L28.166 60h.392l12.989-22.718-.01-.01z" fill="#263238" fill-opacity=".15"/><path d="M30 16.364l11.813 20.454L28.557 60H60V16.364H30z" fill="#FFCD40"/><path d="M30 16.364l11.813 20.454L28.557 60H60V16.364H30z" fill="url(#paint2_linear_78_137)"/><path d="M30 16.364l11.813 20.454L28.557 60H60V16.364H30z" fill="#FFCD40"/><path d="M30 16.364l11.813 20.454L28.557 60H60V16.364H30z" fill="url(#paint3_linear_78_137)"/><path d="M4.763 0v36.818H18.19L30 16.364h30V0H4.763z" fill="#DB4437"/><path d="M4.763 0v36.818H18.19L30 16.364h30V0H4.763z" fill="url(#paint4_linear_78_137)"/><path d="M30 16.364v7.142l26.727-7.142H30z" fill="url(#paint5_radial_78_137)"/><path d="M0 60h28.558l13.255-13.255v-9.927H18.19L0 5.618V60z" fill="#0F9D58"/><path d="M0 60h28.558l13.255-13.255v-9.927H18.19L0 5.618V60z" fill="url(#paint6_linear_78_137)"/><path d="M4.763 13.79L24.28 33.303l-6.09 3.515L4.764 13.79z" fill="url(#paint7_radial_78_137)"/><path d="M28.578 59.962l7.146-26.659 6.089 3.515-13.235 23.145z" fill="url(#paint8_radial_78_137)"/><path d="M30 43.636c7.531 0 13.636-6.105 13.636-13.636 0-7.531-6.105-13.636-13.636-13.636-7.531 0-13.636 6.105-13.636 13.636 0 7.531 6.105 13.636 13.636 13.636z" fill="#F1F1F1"/><path d="M30 40.91c6.025 0 10.91-4.885 10.91-10.91S36.024 19.09 30 19.09 19.09 23.976 19.09 30 23.976 40.91 30 40.91z" fill="#4285F4"/><path d="M30 16.023c-7.53 0-13.636 6.105-13.636 13.636V30c0-7.53 6.105-13.636 13.636-13.636h30v-.341H30z" fill="#3E2723" fill-opacity=".2"/><path d="M41.795 36.818c-2.359 4.07-6.753 6.818-11.795 6.818-5.046 0-9.44-2.747-11.799-6.818h-.014L0 5.618v.341l18.19 31.2h.014c2.36 4.07 6.754 6.818 11.8 6.818 5.041 0 9.436-2.744 11.795-6.818h.017v-.34h-.02z" fill="#fff" fill-opacity=".1"/><path opacity=".1" d="M30.34 16.364c-.057 0-.112.006-.17.01 7.453.092 13.466 6.153 13.466 13.626S37.623 43.534 30.17 43.626c.058 0 .113.01.17.01 7.532 0 13.637-6.105 13.637-13.636 0-7.53-6.105-13.636-13.636-13.636z" fill="#3E2723"/><path d="M41.932 37.272a13.592 13.592 0 001.193-10.926c.324 1.165.511 2.39.511 3.657 0 2.482-.671 4.8-1.83 6.805l.007.014-13.255 23.181h.395L41.94 37.285l-.007-.013z" fill="#fff" fill-opacity=".2"/><path d="M30 .34c16.51 0 29.904 13.34 29.997 29.83 0-.058.003-.112.003-.17C60 13.432 46.568 0 30 0 13.432 0 0 13.432 0 30c0 .058.003.113.003.17C.095 13.68 13.49.34 30 .34z" fill="#fff" fill-opacity=".2"/><path d="M30 59.66c16.51 0 29.904-13.34 29.997-29.83 0 .058.003.112.003.17 0 16.568-13.432 30-30 30C13.432 60 0 46.568 0 30c0-.058.003-.113.003-.17C.095 46.32 13.49 59.66 30 59.66z" fill="#3E2723" fill-opacity=".15"/><path d="M30 60c16.569 0 30-13.431 30-30C60 13.431 46.569 0 30 0 13.431 0 0 13.431 0 30c0 16.569 13.431 30 30 30z" fill="url(#paint9_radial_78_137)"/></g><defs><linearGradient id="paint0_linear_78_137" x1="7.274" y1="22.848" x2="25.172" y2="12.393" gradientUnits="userSpaceOnUse"><stop stop-color="#A52714" stop-opacity=".6"/><stop offset=".66" stop-color="#A52714" stop-opacity="0"/></linearGradient><linearGradient id="paint1_linear_78_137" x1="35.07" y1="53.351" x2="15.183" y2="41.703" gradientUnits="userSpaceOnUse"><stop stop-color="#055524" stop-opacity=".4"/><stop offset=".33" stop-color="#055524" stop-opacity="0"/></linearGradient><linearGradient id="paint2_linear_78_137" x1="38.815" y1="14.251" x2="43.823" y2="36.181" gradientUnits="userSpaceOnUse"><stop stop-color="#EA6100" stop-opacity=".3"/><stop offset=".66" stop-color="#EA6100" stop-opacity="0"/></linearGradient><linearGradient id="paint3_linear_78_137" x1="38.815" y1="14.251" x2="43.823" y2="36.181" gradientUnits="userSpaceOnUse"><stop stop-color="#EA6100" stop-opacity=".3"/><stop offset=".66" stop-color="#EA6100" stop-opacity="0"/></linearGradient><linearGradient id="paint4_linear_78_137" x1="7.274" y1="22.848" x2="25.172" y2="12.393" gradientUnits="userSpaceOnUse"><stop stop-color="#A52714" stop-opacity=".6"/><stop offset=".66" stop-color="#A52714" stop-opacity="0"/></linearGradient><linearGradient id="paint6_linear_78_137" x1="35.07" y1="53.351" x2="15.183" y2="41.703" gradientUnits="userSpaceOnUse"><stop stop-color="#055524" stop-opacity=".4"/><stop offset=".33" stop-color="#055524" stop-opacity="0"/></linearGradient><radialGradient id="paint5_radial_78_137" cx="0" cy="0" r="1" gradientUnits="userSpaceOnUse" gradientTransform="translate(28.696 16.346) scale(28.663)"><stop stop-color="#3E2723" stop-opacity=".2"/><stop offset="1" stop-color="#3E2723" stop-opacity="0"/></radialGradient><radialGradient id="paint7_radial_78_137" cx="0" cy="0" r="1" gradientUnits="userSpaceOnUse" gradientTransform="translate(4.73 13.814) scale(26.6059)"><stop stop-color="#3E2723" stop-opacity=".2"/><stop offset="1" stop-color="#3E2723" stop-opacity="0"/></radialGradient><radialGradient id="paint8_radial_78_137" cx="0" cy="0" r="1" gradientUnits="userSpaceOnUse" gradientTransform="translate(29.947 30.047) scale(29.9557)"><stop stop-color="#263238" stop-opacity=".2"/><stop offset="1" stop-color="#263238" stop-opacity="0"/></radialGradient><radialGradient id="paint9_radial_78_137" cx="0" cy="0" r="1" gradientUnits="userSpaceOnUse" gradientTransform="translate(8.961 8.187) scale(60.2543)"><stop stop-color="#fff" stop-opacity=".1"/><stop offset="1" stop-color="#fff" stop-opacity="0"/></radialGradient></defs></svg>