<svg width="60" height="60" fill="none" xmlns="http://www.w3.org/2000/svg"><path d="M38.8 4.95l-4.349 10.643c-.238.606-.951.91-1.597.673a1.162 1.162 0 01-.747-1.178l.578-11.45c.1-1.753 1.595-3.066 3.329-2.998a3.19 3.19 0 013.024 3.3c-.034.337-.136.674-.238 1.01z" fill="#F16037"/><path fill-rule="evenodd" clip-rule="evenodd" d="M49.502 0h7.1c.782 0 1.53.775 1.496 1.482 0 .835-.402 1.18-.675 1.414a5.695 5.695 0 00-.04.034L40.398 19.162v.034a1.384 1.384 0 01-2.005 0c-.442-.438-.51-1.078-.238-1.616 0 0 8.12-15.054 8.766-16.233C47.565.168 48.958 0 49.502 0zM60 29.703C60 46.138 46.58 59.44 30 59.44c-16.546 0-30-13.302-30-29.737C0 14.717 11.178 2.323 25.72.269c.063-.016.127-.024.187-.032a1.05 1.05 0 00.186-.035c.476.033.883.336 1.02.808l.033.438 1.155 13.37.034.37c-.034.472-.373.842-.815.977-.068 0-.136 0-.204.033-6.387 1.247-11.246 6.837-11.246 13.539 0 7.61 6.218 13.807 13.93 13.807 7.678 0 13.896-6.163 13.93-13.74v-.168c.034-.472.34-.842.781-.977l.204-.034 13.488-2.761.306-.068h.068c.51 0 .951.337 1.087.842 0 .047.008.094.015.144.01.058.02.12.02.193.067.842.101 1.785.101 2.728zm-20.487 0c0 5.187-4.247 9.43-9.479 9.43-5.232 0-9.513-4.21-9.513-9.43 0-5.186 4.247-9.43 9.513-9.43 5.232.034 9.479 4.244 9.479 9.43z" fill="url(#paint0_linear_78_136)"/><path d="M55.074 21.082l-11.008 3.536c-.646.202-1.325-.135-1.529-.775-.17-.505.034-1.044.408-1.347l9.207-6.937c1.393-1.044 3.398-.775 4.45.606a3.14 3.14 0 01-.61 4.412 2.74 2.74 0 01-.918.505z" fill="#F16037"/><defs><linearGradient id="paint0_linear_78_136" x1="0" y1="36.325" x2="60" y2="36.325" gradientUnits="userSpaceOnUse"><stop stop-color="#97C93D"/><stop offset="1" stop-color="#4FBA69"/></linearGradient></defs></svg>